<svg width="273" height="191" viewBox="0 0 273 191" fill="none" xmlns="http://www.w3.org/2000/svg">
<path d="M113.2 20.7C122 11.6 134.2 5.9 147.7 5.9C165.7 5.9 181.3 15.9 189.7 30.8C197 27.6 205 25.8 213.4 25.8C245.8 25.8 272.1 52.3 272.1 85C272.1 117.7 245.8 144.2 213.4 144.2C209.4 144.2 205.6 143.8 201.8 143C194.5 156.1 180.4 165 164.4 165C157.7 165 151.3 163.4 145.6 160.7C138.1 178.2 120.8 190.5 100.6 190.5C79.5 190.5 61.6 177.2 54.7 158.5C51.7 159.1 48.6 159.5 45.4 159.5C20.3 159.5 0 138.9 0 113.6C0 96.6 9.1 81.8 22.7 73.8C19.9 67.4 18.4 60.3 18.4 52.8C18.4 23.6 42.1 0 71.3 0C88.3 0 103.5 8.1 113.2 20.7Z" fill="#0D9DDA"/>
</svg>
