<svg width="273" height="191" viewBox="0 0 273 191" fill="none" xmlns="http://www.w3.org/2000/svg">
<path d="M113.2 20.7C122 11.6 134.2 5.9 147.7 5.9C165.7 5.9 181.3 15.9 189.7 30.8C197 27.6 205 25.8 213.4 25.8C245.8 25.8 272.1 52.3 272.1 85C272.1 117.7 245.8 144.2 213.4 144.2C209.4 144.2 205.6 143.8 201.8 143C194.5 156.1 180.4 165 164.4 165C157.7 165 151.3 163.4 145.6 160.7C138.1 178.2 120.8 190.5 100.6 190.5C79.5 190.5 61.6 177.2 54.7 158.5C51.7 159.1 48.6 159.5 45.4 159.5C20.3 159.5 0 138.9 0 113.6C0 96.6 9.1 81.8 22.7 73.8C19.9 67.4 18.4 60.3 18.4 52.8C18.4 23.6 42.1 0 71.3 0C88.3 0 103.5 8.1 113.2 20.7Z" fill="#003780"/>
<path d="M67.528 90.496C67.528 92.512 67.032 94.272 66.04 95.776C65.048 97.28 63.608 98.448 61.72 99.28C59.864 100.08 57.592 100.48 54.904 100.48C53.72 100.48 52.552 100.4 51.4 100.24C50.28 100.08 49.192 99.856 48.136 99.568C47.112 99.248 46.136 98.864 45.208 98.416V91.648C46.84 92.352 48.52 93.008 50.248 93.616C52.008 94.192 53.752 94.48 55.48 94.48C56.664 94.48 57.608 94.32 58.312 94C59.048 93.68 59.576 93.248 59.896 92.704C60.248 92.16 60.424 91.536 60.424 90.832C60.424 89.968 60.12 89.232 59.512 88.624C58.936 88.016 58.152 87.456 57.16 86.944C56.168 86.4 55.032 85.824 53.752 85.216C52.952 84.832 52.088 84.384 51.16 83.872C50.232 83.328 49.336 82.672 48.472 81.904C47.64 81.104 46.952 80.144 46.408 79.024C45.864 77.904 45.592 76.56 45.592 74.992C45.592 72.944 46.056 71.2 46.984 69.76C47.944 68.288 49.288 67.168 51.016 66.4C52.776 65.632 54.84 65.248 57.208 65.248C59 65.248 60.696 65.456 62.296 65.872C63.928 66.288 65.624 66.88 67.384 67.648L65.032 73.312C63.464 72.672 62.056 72.176 60.808 71.824C59.56 71.472 58.28 71.296 56.968 71.296C56.072 71.296 55.304 71.44 54.664 71.728C54.024 72.016 53.528 72.416 53.176 72.928C52.856 73.44 52.696 74.048 52.696 74.752C52.696 75.552 52.936 76.24 53.416 76.816C53.896 77.36 54.616 77.888 55.576 78.4C56.536 78.912 57.736 79.52 59.176 80.224C60.936 81.056 62.424 81.92 63.64 82.816C64.888 83.712 65.848 84.768 66.52 85.984C67.192 87.2 67.528 88.704 67.528 90.496ZM83.9815 73.312C86.4135 73.312 88.4935 73.776 90.2215 74.704C91.9815 75.632 93.3415 76.976 94.3015 78.736C95.2615 80.496 95.7415 82.656 95.7415 85.216V88.672H78.8455C78.9095 90.688 79.5015 92.272 80.6215 93.424C81.7735 94.576 83.3575 95.152 85.3735 95.152C87.0695 95.152 88.6055 94.992 89.9815 94.672C91.3575 94.32 92.7815 93.792 94.2535 93.088V98.608C92.9735 99.248 91.6135 99.712 90.1735 100C88.7655 100.32 87.0535 100.48 85.0375 100.48C82.4135 100.48 80.0935 100 78.0775 99.04C76.0615 98.048 74.4775 96.56 73.3255 94.576C72.1735 92.592 71.5975 90.096 71.5975 87.088C71.5975 84.016 72.1095 81.472 73.1335 79.456C74.1895 77.408 75.6455 75.872 77.5015 74.848C79.3575 73.824 81.5175 73.312 83.9815 73.312ZM84.0295 78.4C82.6535 78.4 81.5015 78.848 80.5735 79.744C79.6775 80.64 79.1495 82.032 78.9895 83.92H89.0215C89.0215 82.864 88.8295 81.92 88.4455 81.088C88.0935 80.256 87.5495 79.6 86.8135 79.12C86.0775 78.64 85.1495 78.4 84.0295 78.4ZM119.829 92.224C119.829 93.984 119.413 95.488 118.581 96.736C117.749 97.952 116.501 98.88 114.837 99.52C113.173 100.16 111.109 100.48 108.645 100.48C106.821 100.48 105.253 100.352 103.941 100.096C102.629 99.872 101.317 99.488 100.005 98.944V93.04C101.413 93.68 102.933 94.208 104.565 94.624C106.197 95.04 107.637 95.248 108.885 95.248C110.293 95.248 111.285 95.04 111.861 94.624C112.469 94.208 112.773 93.664 112.773 92.992C112.773 92.544 112.645 92.144 112.389 91.792C112.165 91.44 111.653 91.04 110.853 90.592C110.053 90.144 108.805 89.568 107.109 88.864C105.477 88.16 104.133 87.472 103.077 86.8C102.021 86.096 101.237 85.264 100.725 84.304C100.213 83.312 99.9569 82.08 99.9569 80.608C99.9569 78.176 100.901 76.352 102.789 75.136C104.677 73.92 107.189 73.312 110.325 73.312C111.957 73.312 113.509 73.472 114.981 73.792C116.453 74.112 117.973 74.64 119.541 75.376L117.381 80.512C116.517 80.128 115.685 79.792 114.885 79.504C114.085 79.216 113.301 78.992 112.533 78.832C111.797 78.672 111.029 78.592 110.229 78.592C109.173 78.592 108.373 78.736 107.829 79.024C107.317 79.312 107.061 79.744 107.061 80.32C107.061 80.736 107.189 81.12 107.445 81.472C107.733 81.792 108.261 82.144 109.029 82.528C109.829 82.912 110.997 83.424 112.533 84.064C114.037 84.672 115.333 85.312 116.421 85.984C117.509 86.624 118.341 87.44 118.917 88.432C119.525 89.392 119.829 90.656 119.829 92.224ZM120.6 111.52C119.864 111.52 119.128 111.456 118.392 111.328C117.624 111.232 117 111.104 116.52 110.944V105.28C117.032 105.44 117.496 105.552 117.912 105.616C118.328 105.712 118.76 105.76 119.208 105.76C120.168 105.76 121 105.44 121.704 104.8C122.44 104.16 122.952 103.152 123.24 101.776L128.04 79.168H124.2L124.92 75.76L129.192 73.792L129.624 71.824C129.976 70.224 130.424 68.88 130.968 67.792C131.544 66.704 132.232 65.84 133.032 65.2C133.832 64.528 134.744 64.048 135.768 63.76C136.824 63.44 137.992 63.28 139.272 63.28C140.36 63.28 141.352 63.392 142.248 63.616C143.176 63.808 144.024 64.08 144.792 64.432L142.92 69.664C142.472 69.472 141.992 69.312 141.48 69.184C141 69.024 140.44 68.944 139.8 68.944C138.904 68.944 138.184 69.264 137.64 69.904C137.096 70.512 136.728 71.328 136.536 72.352L136.248 73.792H141.384L140.232 79.168H135.096L130.056 102.832C129.736 104.432 129.208 105.888 128.472 107.2C127.736 108.512 126.728 109.552 125.448 110.32C124.2 111.12 122.584 111.52 120.6 111.52ZM167.115 86.848C167.115 89.024 166.811 90.96 166.203 92.656C165.627 94.352 164.779 95.792 163.659 96.976C162.571 98.128 161.243 99.008 159.675 99.616C158.107 100.192 156.331 100.48 154.347 100.48C152.523 100.48 150.827 100.192 149.259 99.616C147.723 99.008 146.395 98.128 145.275 96.976C144.155 95.792 143.275 94.352 142.635 92.656C142.027 90.96 141.723 89.024 141.723 86.848C141.723 83.936 142.235 81.488 143.259 79.504C144.283 77.488 145.755 75.952 147.675 74.896C149.595 73.84 151.867 73.312 154.491 73.312C156.955 73.312 159.131 73.84 161.019 74.896C162.907 75.952 164.395 77.488 165.483 79.504C166.571 81.488 167.115 83.936 167.115 86.848ZM149.019 86.848C149.019 88.576 149.195 90.032 149.547 91.216C149.931 92.368 150.523 93.248 151.323 93.856C152.123 94.432 153.163 94.72 154.443 94.72C155.723 94.72 156.747 94.432 157.515 93.856C158.315 93.248 158.891 92.368 159.243 91.216C159.627 90.032 159.819 88.576 159.819 86.848C159.819 85.12 159.627 83.68 159.243 82.528C158.891 81.376 158.315 80.512 157.515 79.936C156.715 79.36 155.675 79.072 154.395 79.072C152.507 79.072 151.131 79.728 150.267 81.04C149.435 82.32 149.019 84.256 149.019 86.848ZM187.665 73.312C188.017 73.312 188.433 73.328 188.913 73.36C189.393 73.392 189.777 73.44 190.065 73.504L189.537 80.224C189.313 80.16 188.977 80.112 188.529 80.08C188.113 80.016 187.745 79.984 187.425 79.984C186.497 79.984 185.601 80.112 184.737 80.368C183.873 80.592 183.089 80.96 182.385 81.472C181.713 81.984 181.169 82.672 180.753 83.536C180.369 84.368 180.177 85.408 180.177 86.656V100H173.025V73.792H178.449L179.505 78.208H179.841C180.353 77.312 180.993 76.496 181.761 75.76C182.529 75.024 183.409 74.432 184.401 73.984C185.425 73.536 186.513 73.312 187.665 73.312ZM204.541 100.48C201.949 100.48 199.741 100.016 197.917 99.088C196.093 98.128 194.701 96.656 193.741 94.672C192.781 92.688 192.301 90.144 192.301 87.04C192.301 83.84 192.845 81.232 193.933 79.216C195.021 77.2 196.525 75.712 198.445 74.752C200.397 73.792 202.637 73.312 205.165 73.312C206.957 73.312 208.509 73.488 209.821 73.84C211.165 74.192 212.333 74.608 213.325 75.088L211.213 80.608C210.093 80.16 209.037 79.792 208.045 79.504C207.085 79.216 206.125 79.072 205.165 79.072C203.917 79.072 202.877 79.376 202.045 79.984C201.213 80.56 200.589 81.44 200.173 82.624C199.789 83.776 199.597 85.232 199.597 86.992C199.597 88.72 199.805 90.16 200.221 91.312C200.669 92.432 201.309 93.28 202.141 93.856C202.973 94.4 203.981 94.672 205.165 94.672C206.669 94.672 207.997 94.48 209.149 94.096C210.301 93.68 211.421 93.12 212.509 92.416V98.512C211.421 99.216 210.269 99.712 209.053 100C207.869 100.32 206.365 100.48 204.541 100.48ZM229.341 73.312C231.773 73.312 233.853 73.776 235.581 74.704C237.341 75.632 238.701 76.976 239.661 78.736C240.621 80.496 241.101 82.656 241.101 85.216V88.672H224.205C224.269 90.688 224.861 92.272 225.981 93.424C227.133 94.576 228.717 95.152 230.733 95.152C232.429 95.152 233.965 94.992 235.341 94.672C236.717 94.32 238.141 93.792 239.613 93.088V98.608C238.333 99.248 236.973 99.712 235.533 100C234.125 100.32 232.413 100.48 230.397 100.48C227.773 100.48 225.453 100 223.437 99.04C221.421 98.048 219.837 96.56 218.685 94.576C217.533 92.592 216.957 90.096 216.957 87.088C216.957 84.016 217.469 81.472 218.493 79.456C219.549 77.408 221.005 75.872 222.861 74.848C224.717 73.824 226.877 73.312 229.341 73.312ZM229.389 78.4C228.013 78.4 226.861 78.848 225.933 79.744C225.037 80.64 224.509 82.032 224.349 83.92H234.381C234.381 82.864 234.189 81.92 233.805 81.088C233.453 80.256 232.909 79.6 232.173 79.12C231.437 78.64 230.509 78.4 229.389 78.4Z" fill="white"/>
</svg>
